<mxfile host="app.diagrams.net" modified="2023-12-20T04:05:40.606Z" agent="Mozilla/5.0 (Windows NT 10.0; Win64; x64) AppleWebKit/537.36 (KHTML, like Gecko) Chrome/120.0.0.0 Safari/537.36" version="22.1.11" etag="Q4zuQFa8d_0hCpe88j_X" type="github">
  <diagram name="第 1 页" id="MW0tD9vEuxQ4wjxk8LT8">
    <mxGraphModel>
      <root>
        <mxCell id="0" />
        <mxCell id="1" parent="0" />
      </root>
    </mxGraphModel>
  </diagram>
</mxfile>
